<?xml version="1.0" encoding="UTF-8"?>
<svg xmlns="http://www.w3.org/2000/svg" xmlns:xlink="http://www.w3.org/1999/xlink" width="16pt" height="16pt" viewBox="0 0 16 16" version="1.1">
<g id="surface1">
<path style=" stroke:none;fill-rule:nonzero;fill:rgb(35.686275%,35.686275%,35.686275%);fill-opacity:1;" d="M 9.5 1.5 C 6.746094 1.5 4.5 3.746094 4.5 6.5 C 4.5 7.699219 4.917969 8.792969 5.625 9.65625 L 1.640625 13.640625 L 2.359375 14.359375 L 6.34375 10.375 C 7.207031 11.082031 8.300781 11.5 9.5 11.5 C 12.253906 11.5 14.5 9.253906 14.5 6.5 C 14.5 3.746094 12.253906 1.5 9.5 1.5 Z M 9.5 2.5 C 11.714844 2.5 13.5 4.285156 13.5 6.5 C 13.5 8.714844 11.714844 10.5 9.5 10.5 C 7.285156 10.5 5.5 8.714844 5.5 6.5 C 5.5 4.285156 7.285156 2.5 9.5 2.5 Z "/>
</g>
</svg>
